<svg xmlns:xlink="http://www.w3.org/1999/xlink" xmlns="http://www.w3.org/2000/svg" width="24" height="24" viewBox="0 0 24 24" fill="none"><path fill-rule="evenodd" clip-rule="evenodd" d="M15.9647 2.16814C15.9647 3.36283 14.969 4.33628 13.747 4.33628C12.525 4.33628 11.5293 3.36283 11.5293 2.16814C11.5293 0.973451 12.525 0 13.747 0C14.969 0 15.9647 0.973451 15.9647 2.16814ZM8.69612 5.60177C9.41121 5.60177 9.99052 5.0354 9.99052 4.33628C9.99052 3.63717 9.41121 3.0708 8.69612 3.0708C7.98103 3.0708 7.40172 3.63717 7.40172 4.33628C7.40172 5.0354 7.98103 5.60177 8.69612 5.60177ZM22.5 16.8496C22.5 15.115 21.2509 13.0531 19.2595 11.4513C19.9746 10.9558 20.3819 10.3717 20.3819 9.75221C20.3819 7.87611 16.6254 6.35398 12 6.35398C7.37457 6.35398 3.6181 7.87611 3.6181 9.75221C3.6181 10.3717 4.02543 10.9469 4.74052 11.4513C2.74914 13.0442 1.5 15.115 1.5 16.8496C1.5 18.5841 2.86681 20.3009 5.03017 21.4248L4.77672 24H7.49224L7.99009 22.5044C9.22112 22.8053 10.5789 22.9646 11.9909 22.9646C13.403 22.9646 14.7608 22.7965 15.9918 22.5044L16.5349 24H19.2504L18.9517 21.4248C21.1241 20.3009 22.4819 18.6726 22.4819 16.8496H22.5ZM17.5849 9.87611C17.3405 9.9823 17.0418 10.0973 16.6978 10.2124C16.4172 10.3009 16.1095 10.3805 15.7927 10.4513C14.0276 10.8496 13.2491 12.0885 14.7427 14.7522C16.2362 17.4159 15.7927 19.4425 13.8556 19.6283C12.0181 19.8053 11.5112 17.7788 11.9819 15.3805C12.6427 12 10.1534 12.6903 10.3526 14.531C10.5517 16.3717 10.244 16.8584 9.33879 17.0442C7.84526 17.115 8.13491 15.7434 8.46078 14.2035C8.80474 12.6018 9.18491 10.823 7.61897 10.3097H7.62802C7.51034 10.2743 7.38362 10.2389 7.275 10.2035C6.92198 10.0973 6.63233 9.9823 6.38793 9.86726C6.04397 9.71681 6.04397 9.19469 6.38793 9.0354C6.63233 8.9292 6.93103 8.81416 7.275 8.69911C8.5875 8.28319 10.253 8.0531 11.9728 8.0531C13.6927 8.0531 15.3582 8.28319 16.6707 8.69911C17.0237 8.80531 17.3134 8.92035 17.5578 9.0354C17.9017 9.18584 17.9017 9.70796 17.5578 9.86726L17.5849 9.87611Z" fill="white"/></svg>