<svg xmlns:xlink="http://www.w3.org/1999/xlink" xmlns="http://www.w3.org/2000/svg" width="24" height="24" viewBox="0 0 24 24" fill="none"><path d="M17.4846 1.76591V5.23449C15.9804 3.54422 13.4822 1 11.9956 1C10.509 1 8.002 3.54422 6.5066 5.23449V1.76591L3.87645 2.69028L1 12.5678L3.87645 20.3413H2.13475V23H21.8565V20.3413H20.1236L23 12.5678L20.1236 2.69028L17.4934 1.76591H17.4846ZM19.024 12.5414C18.5754 14.5838 16.9304 18.2813 13.9836 18.8007C12.409 19.0736 10.2891 17.3393 9.18952 15.2969C8.96961 14.8832 8.35386 15.1032 8.42423 15.561C8.69692 17.5066 9.86685 19.3025 10.8697 20.1301C10.9664 20.2181 11.0368 20.3589 10.9928 20.4822C10.9488 20.6583 10.7641 20.7463 10.597 20.7111C10.5618 20.7111 9.55898 20.4294 8.29228 19.2585C6.7617 17.8499 4.41303 14.5574 5.44222 11.7315C5.98761 10.2173 8.54738 9.2401 10.8521 9.30172C11.3095 9.30172 11.4326 8.67667 11.0104 8.5006C9.20712 7.76991 7.07837 7.88435 5.86445 8.35094C5.7413 8.39496 5.59176 8.38615 5.495 8.28051C5.37185 8.14846 5.38065 7.94598 5.495 7.82273C5.52139 7.78752 6.2603 7.05682 7.89644 6.53742C9.87565 5.91236 13.8693 5.4986 15.7781 7.81393C16.7985 9.05522 16.3675 11.7667 15.1623 13.7563C14.9248 14.1525 15.4086 14.575 15.7781 14.2933C17.2999 13.0784 18.2675 11.1681 18.4786 9.87395C18.505 9.7419 18.5842 9.61865 18.7249 9.59224C18.9008 9.55702 19.068 9.65386 19.1208 9.82113C19.1208 9.85634 19.3934 10.8687 19.024 12.5678V12.5414Z" fill="white"/></svg>